<?xml version="1.0" encoding="utf-8"?>
<!-- Generator: Adobe Illustrator 21.0.0, SVG Export Plug-In . SVG Version: 6.00 Build 0)  -->
<svg version="1.1" id="Layer_1" xmlns="http://www.w3.org/2000/svg" xmlns:xlink="http://www.w3.org/1999/xlink" x="0px" y="0px"
	 viewBox="0 0 512 512" style="enable-background:new 0 0 512 512;" xml:space="preserve">
<style type="text/css">
	.st0{fill:#FFFFFF;}
	.st1{fill:#455A64;}
</style>
<g>
	<path class="st0" d="M512,455.1c0,31.4-25.5,56.9-56.9,56.9H56.9C25.5,512,0,486.5,0,455.1V56.9C0,25.5,25.5,0,56.9,0h398.2
		C486.5,0,512,25.5,512,56.9V455.1z"/>
	<path class="st1" d="M177.2,393.2c-4.1,0-8-0.8-11.7-2l-0.1,0.3l-52.2-15.1c9.2,26.7,34.2,46,64,46c37.6,0,67.9-30.4,67.9-67.9
		s-30.4-67.9-67.9-67.9c-16.2,0-30.9,5.9-42.6,15.5l50.3,14.5l1.2,0.3l0.7,0.2l0,0c16.7,4.3,29.1,19.3,29.1,37.3
		C216,375.8,198.6,393.2,177.2,393.2z"/>
	<path class="st1" d="M354.5,260.3c45.8,0,83-37.2,83-83s-37.2-83-83-83s-83,37.2-83,83C271.4,223.1,308.7,260.3,354.5,260.3z
		 M354.4,119.6c31.9,0,57.7,25.8,57.7,57.6c0,31.9-25.8,57.6-57.7,57.6c-31.8,0-57.6-25.8-57.6-57.6S322.6,119.6,354.4,119.6z"/>
	<path class="st1" d="M455.1,0H416H96H56.9C25.5,0,0,25.5,0,56.9V96v60.2V263l99.9,29c18.3-22.6,45.9-37.3,77.3-37.3l2.9,0.3
		l55.1-76.2l-0.1-1.5c0-65.8,53.4-119.3,119.3-119.3s119.3,53.4,119.3,119.3s-53.4,119.3-119.3,119.3l-1.9-0.1l-75.8,55.1l0.3,3
		c0,55.2-44.7,99.9-99.9,99.9c-51.1,0-92.7-38.5-98.7-88L0,343.6v36.7V416v39.1C0,486.5,25.5,512,56.9,512H96h320h39.1
		c31.4,0,56.9-25.5,56.9-56.9V416V96V56.9C512,25.5,486.5,0,455.1,0z"/>
</g>
</svg>
